<svg t="1584601752308" class="icon" viewBox="0 0 1024 1024" version="1.1" xmlns="http://www.w3.org/2000/svg" p-id="35025" width="200" height="200"><path d="M512 512m-512 0a512 512 0 1 0 1024 0 512 512 0 1 0-1024 0Z" fill="#4CDBC4" p-id="35026"></path><path d="M338.066286 272.969143h347.818666v57.148952H338.066286z" fill="#FFFFFF" p-id="35027"></path><path d="M433.590857 157.696h156.720762a115.273143 115.273143 0 0 1 115.321905 115.273143H318.317714A115.273143 115.273143 0 0 1 433.590857 157.696z" fill="#324A5E" p-id="35028"></path><path d="M269.165714 313.831619m242.834286 0l-0.048762 0q242.834286 0 242.834286 242.834286l0 66.803809q0 242.834286-242.834286 242.834286l0.048762 0q-242.834286 0-242.834286-242.834286l0-66.803809q0-242.834286 242.834286-242.834286Z" fill="#FFFFFF" p-id="35029"></path><path d="M269.165714 443.538286h485.61981v299.203047H269.165714z" fill="#FF7058" p-id="35030"></path><path d="M611.815619 564.126476H541.062095V493.372952H482.986667v70.753524H412.233143v58.075429h70.753524v70.753524h58.075428V622.201905h70.753524z" fill="#FFFFFF" p-id="35031"></path><path d="M372.199619 256.975238a9.752381 9.752381 0 0 1-9.752381-9.752381V183.003429a9.752381 9.752381 0 0 1 9.752381-9.752381 9.752381 9.752381 0 0 1 9.752381 9.752381v64.219428a9.752381 9.752381 0 0 1-9.752381 9.752381z" fill="#2B3B4E" p-id="35032"></path><path d="M418.767238 256.975238a9.752381 9.752381 0 0 1-9.752381-9.752381V183.003429a9.752381 9.752381 0 0 1 9.752381-9.752381 9.752381 9.752381 0 0 1 9.752381 9.752381v64.219428a9.752381 9.752381 0 0 1-9.752381 9.752381z" fill="#2B3B4E" p-id="35033"></path><path d="M465.383619 256.975238a9.752381 9.752381 0 0 1-9.752381-9.752381V183.003429a9.752381 9.752381 0 0 1 9.752381-9.752381 9.752381 9.752381 0 0 1 9.752381 9.752381v64.219428a9.752381 9.752381 0 0 1-9.752381 9.752381z" fill="#2B3B4E" p-id="35034"></path><path d="M511.951238 256.975238a9.752381 9.752381 0 0 1-9.752381-9.752381V183.003429a9.752381 9.752381 0 0 1 9.752381-9.752381 9.752381 9.752381 0 0 1 9.752381 9.752381v64.219428a9.752381 9.752381 0 0 1-9.752381 9.752381z" fill="#2B3B4E" p-id="35035"></path><path d="M558.518857 256.975238a9.752381 9.752381 0 0 1-9.752381-9.752381V183.003429a9.752381 9.752381 0 0 1 9.752381-9.752381 9.752381 9.752381 0 0 1 9.752381 9.752381v64.219428a9.752381 9.752381 0 0 1-9.752381 9.752381z" fill="#2B3B4E" p-id="35036"></path><path d="M605.086476 256.975238a9.752381 9.752381 0 0 1-9.752381-9.752381V183.003429a9.752381 9.752381 0 0 1 9.752381-9.752381 9.752381 9.752381 0 0 1 9.752381 9.752381v64.219428a9.752381 9.752381 0 0 1-9.752381 9.752381z" fill="#2B3B4E" p-id="35037"></path><path d="M651.702857 256.975238a9.752381 9.752381 0 0 1-9.752381-9.752381V183.003429a9.752381 9.752381 0 0 1 9.752381-9.752381 9.752381 9.752381 0 0 1 9.752381 9.752381v64.219428a9.752381 9.752381 0 0 1-9.752381 9.752381z" fill="#2B3B4E" p-id="35038"></path></svg>