<?xml version="1.0" encoding="utf-8"?>
<svg version="1.1" xmlns:xlink="http://www.w3.org/1999/xlink" width="13px" height="17px" xmlns="http://www.w3.org/2000/svg">
  <g transform="matrix(1 0 0 1 -348 -285 )">
    <path d="M 12.7766323024055 8.10821643286571  C 12.9255441008018 8.22177688710754  13 8.35237140948565  13 8.49999999999999  C 13 8.64762859051435  12.9255441008018 8.77822311289246  12.7766323024055 8.89178356713428  L 2.36769759450166 16.8296593186373  C 2.21878579610539 16.9432197728791  2.04753722794962 17  1.85395189003438 17  C 1.66036655211914 17  1.48911798396338 16.9432197728791  1.34020618556702 16.8296593186373  L 0.223367697594455 15.9779559118236  C 0.0744558991981762 15.8643954575818  0 15.7338009352038  0 15.5861723446894  C 0 15.438543754175  0.0744558991981762 15.3079492317969  0.223367697594455 15.1943887775551  L 9.00171821305841 8.49999999999999  L 0.223367697594455 1.80561122244488  C 0.0744558991981762 1.69205076820309  0 1.56145624582498  0 1.41382765531064  C 0 1.26619906479624  0.0744558991981762 1.13560454241816  0.223367697594455 1.02204408817634  L 1.34020618556702 0.170340681362733  C 1.48911798396338 0.056780227120911  1.66036655211914 0  1.85395189003438 0  C 2.04753722794962 0  2.21878579610539 0.056780227120911  2.36769759450166 0.170340681362733  L 12.7766323024055 8.10821643286571  Z " fill-rule="nonzero" fill="#cccccc" stroke="none" transform="matrix(1 0 0 1 348 285 )" />
  </g>
</svg>