<?xml version="1.0" standalone="no"?><!DOCTYPE svg PUBLIC "-//W3C//DTD SVG 1.1//EN" "http://www.w3.org/Graphics/SVG/1.1/DTD/svg11.dtd"><svg t="1605957822668" class="icon" viewBox="0 0 1024 1024" version="1.1" xmlns="http://www.w3.org/2000/svg" p-id="4582" xmlns:xlink="http://www.w3.org/1999/xlink" width="200" height="200"><defs><style type="text/css"></style></defs><path d="M658.272 786.272l0-91.424q0-8-5.152-13.152t-13.152-5.152l-54.848 0 0-292.576q0-8-5.152-13.152t-13.152-5.152l-182.848 0q-8 0-13.152 5.152t-5.152 13.152l0 91.424q0 8 5.152 13.152t13.152 5.152l54.848 0 0 182.848-54.848 0q-8 0-13.152 5.152t-5.152 13.152l0 91.424q0 8 5.152 13.152t13.152 5.152l256 0q8 0 13.152-5.152t5.152-13.152zM585.12 274.272l0-91.424q0-8-5.152-13.152t-13.152-5.152l-109.728 0q-8 0-13.152 5.152t-5.152 13.152l0 91.424q0 8 5.152 13.152t13.152 5.152l109.728 0q8 0 13.152-5.152t5.152-13.152zM950.848 512q0 119.424-58.848 220.288t-159.712 159.712-220.288 58.848-220.288-58.848-159.712-159.712-58.848-220.288 58.848-220.288 159.712-159.712 220.288-58.848 220.288 58.848 159.712 159.712 58.848 220.288z" p-id="4583" fill="#999999"></path></svg>