<?xml version="1.0" standalone="no"?><!DOCTYPE svg PUBLIC "-//W3C//DTD SVG 1.1//EN" "http://www.w3.org/Graphics/SVG/1.1/DTD/svg11.dtd"><svg t="1605772034849" class="icon" viewBox="0 0 1024 1024" version="1.1" xmlns="http://www.w3.org/2000/svg" p-id="2587" xmlns:xlink="http://www.w3.org/1999/xlink" width="200" height="200"><defs><style type="text/css"></style></defs><path d="M658.285714 786.285714V694.857143c0-10.276571-8.009143-18.285714-18.285714-18.285714H585.142857v-292.571429c0-10.276571-8.009143-18.285714-18.285714-18.285714h-182.857143c-10.276571 0-18.285714 8.009143-18.285714 18.285714V475.428571c0 10.276571 8.009143 18.285714 18.285714 18.285715H438.857143v182.857143H384c-10.276571 0-18.285714 8.009143-18.285714 18.285714v91.428571c0 10.276571 8.009143 18.285714 18.285714 18.285715h256c10.276571 0 18.285714-8.009143 18.285714-18.285715z m-73.142857-512V182.857143c0-10.276571-8.009143-18.285714-18.285714-18.285714h-109.714286c-10.276571 0-18.285714 8.009143-18.285714 18.285714v91.428571c0 10.276571 8.009143 18.285714 18.285714 18.285715h109.714286c10.276571 0 18.285714-8.009143 18.285714-18.285715zM950.857143 512c0 242.285714-196.571429 438.857143-438.857143 438.857143S73.142857 754.285714 73.142857 512 269.714286 73.142857 512 73.142857s438.857143 196.571429 438.857143 438.857143z" fill="#3399ff" p-id="2588"></path></svg>