<svg t="1584600825801" class="icon" viewBox="0 0 1024 1024" version="1.1" xmlns="http://www.w3.org/2000/svg" p-id="11309" width="200" height="200"><path d="M25.6 517.4272a487.6032 486.4 90 1 0 972.8 0 487.6032 486.4 90 1 0-972.8 0Z" fill="#C3A279" p-id="11310"></path><path d="M679.7312 284.3648v69.2992h-68.992v-69.2992H403.712v69.2992h-68.992v-69.2992a69.1456 69.1456 0 0 0-68.992 69.2992v346.5216a69.1456 69.1456 0 0 0 68.992 69.2992h344.9856a69.1456 69.1456 0 0 0 68.992-69.2992V353.664a69.1456 69.1456 0 0 0-68.992-69.2992z m0 415.8208H334.7456V422.9632h344.9856v277.2224z" fill="#FFFFFF" p-id="11311"></path><path d="M629.3248 512.5888l-48.768-49.024-97.6128 98.0224-48.7936-48.9984-48.7936 48.9984 97.5872 97.9968z" fill="#FFFFFF" p-id="11312"></path></svg>