<svg t="1600650926747" class="icon" viewBox="0 0 1024 1024" version="1.1" xmlns="http://www.w3.org/2000/svg" p-id="10964" width="200" height="200"><path d="M757.122 974.6c-13.474 0-28.666-3.883-42.764-10.93L513.483 863.22 311.346 963.527c-12.821 6.812-27.47 10.407-42.399 10.407-19.613 0-38.77-6.274-53.942-17.65-28.301-21.225-42.807-57.97-36.11-91.45l41.361-214.487-158.467-147.71c-24.38-24.385-34.047-61.412-24.634-94.35l0.336-1.09c11.506-34.511 40.1-58.722 74.741-63.36l220.162-40.031 98.808-200.707c15.878-31.772 48.172-52.205 82.32-52.205 35.62 0 68.707 21.173 82.593 52.761l98.496 200.064 220.224 38.496c34.719 4.868 64.047 30.519 73.349 64.1 10.848 33.456 2.102 69.667-22.915 94.684l-0.557 0.543L806.71 650.336l39.903 214.848c6.437 34.358-7.215 69.077-35.66 90.706-14.745 12.072-33.849 18.71-53.831 18.71zM513.574 804.78l224.19 112.1c6.58 3.293 14.178 5.405 19.362 5.405 8.021 0 15.428-2.491 20.856-7.008l1.052-0.84c12.753-9.562 18.936-24.744 16.147-39.643l-45.125-242.962 178.46-168.062c10.91-11.093 14.663-27.015 9.786-41.65l-0.46-1.531c-3.72-13.968-15.98-24.653-30.5-26.592l-1.036-0.163-246.879-43.162-111.086-225.696c-5.395-12.605-20.04-21.749-34.81-21.749-14.51 0-28.425 9.087-35.457 23.136L367.693 350.571l-248.189 45.087c-15.086 1.881-26.784 11.904-32.194 27.532-3.844 14.27 0.716 31.464 11.194 42.173l178.603 166.46-46.881 243.1c-2.818 14.098 3.844 30.274 16.166 39.509 6.178 4.642 14.184 7.18 22.555 7.18 6.461 0 12.691-1.502 18.015-4.382l0.777-0.398 225.835-112.051z" fill="#97800b" p-id="10965"></path><path d="M756.877 477.282a11.232 11.232 0 0 1-2.079-0.188l-162.93-28.483-72.922-148.123a12.034 12.034 0 0 1 21.59-10.637l67.517 137.15 150.893 26.381a12.029 12.029 0 0 1 9.772 13.925 12.038 12.038 0 0 1-11.841 9.975z" fill="#97800b" p-id="10966"></path></svg>