<svg t="1584601147097" class="icon" viewBox="0 0 1024 1024" version="1.1" xmlns="http://www.w3.org/2000/svg" p-id="13135" width="200" height="200"><path d="M512 512m-512 0a512 512 0 1 0 1024 0 512 512 0 1 0-1024 0Z" fill="#00B79B" p-id="13136"></path><path d="M512.170667 378.666667a10.496 10.496 0 0 1-9.984-7.381334l-45.013334-145.322666a57.6 57.6 0 0 1 37.888-71.936c5.461333-1.706667 11.136-2.56 16.853334-2.56h0.128a57.472 57.472 0 0 1 54.869333 74.154666L522.24 371.242667a10.496 10.496 0 0 1-9.984 7.424z m-0.128-206.250667a36.522667 36.522667 0 0 0-34.858667 47.36l34.986667 112.853333 34.730666-113.066666a36.48 36.48 0 0 0-34.816-47.146667z" fill="#FFFFFF" p-id="13137"></path><path d="M721.493333 588.16H302.506667a125.866667 125.866667 0 0 1-125.738667-125.696 125.866667 125.866667 0 0 1 125.696-125.696h419.072a125.866667 125.866667 0 0 1 125.696 125.696 125.866667 125.866667 0 0 1-125.696 125.696z m-418.986666-209.493333a83.925333 83.925333 0 0 0-83.84 83.797333c0 46.208 37.589333 83.797333 83.797333 83.797333h419.072a83.925333 83.925333 0 0 0 83.797333-83.797333 83.925333 83.925333 0 0 0-83.797333-83.797333H302.464z" fill="#FFFFFF" p-id="13138"></path><path d="M721.493333 797.696H302.506667a125.866667 125.866667 0 0 1-125.738667-125.696 125.866667 125.866667 0 0 1 125.696-125.738667h419.072a125.866667 125.866667 0 0 1 125.696 125.738667 125.866667 125.866667 0 0 1-125.696 125.696z m-418.986666-209.493333a83.925333 83.925333 0 0 0-83.84 83.797333c0 46.208 37.589333 83.797333 83.797333 83.797333h419.072a83.925333 83.925333 0 0 0 83.797333-83.797333 83.925333 83.925333 0 0 0-83.797333-83.84H302.464z" fill="#FFFFFF" p-id="13139"></path><path d="M512 797.696a20.949333 20.949333 0 0 1-20.949333-20.949333V357.717333a20.949333 20.949333 0 1 1 41.898666 0v419.029334c0 11.562667-9.386667 20.949333-20.949333 20.949333z" fill="#FFFFFF" p-id="13140"></path><path d="M512 378.666667A230.784 230.784 0 0 1 302.165333 243.626667a20.949333 20.949333 0 1 1 38.144-17.365334A189.098667 189.098667 0 0 0 512 336.768a189.098667 189.098667 0 0 0 171.690667-110.506667 20.949333 20.949333 0 1 1 38.144 17.365334A230.741333 230.741333 0 0 1 512 378.666667z" fill="#FFFFFF" p-id="13141"></path></svg>