<svg t="1584601084516" class="icon" viewBox="0 0 1024 1024" version="1.1" xmlns="http://www.w3.org/2000/svg" p-id="12999" width="200" height="200"><path d="M705.024 537.088H287.744c-12.288 0-22.528 7.168-22.528 16.384v27.648c0 17.92 6.144 35.328 16.384 50.176h429.056c10.752-14.848 16.384-32.256 16.384-50.176v-27.648c0.512-8.704-9.728-16.384-22.016-16.384z" fill="#75D9D3" p-id="13000"></path><path d="M512 52.224c-254.464 0-460.288 206.336-460.288 460.288 0 254.464 206.336 460.288 460.288 460.288s460.288-206.336 460.288-460.288c0-253.952-205.824-460.288-460.288-460.288z m107.008 164.864c7.68-8.704 27.648-4.096 36.352 3.584l6.144 5.632c8.704 7.68 15.872 27.136 7.68 35.84l-88.576 88.064-37.888-34.304 76.288-98.816z m142.848 354.304c0 81.408-57.344 151.552-136.704 167.424v16.384c0 11.776-9.728 21.504-21.504 21.504H389.632c-11.776 0-21.504-9.728-21.504-21.504v-16.384c-79.872-16.384-136.704-86.528-136.704-167.424v-43.008c0-14.336 11.264-25.6 25.6-25.6h129.024L537.088 322.56l37.888 34.304-133.12 145.92H537.6l120.832-106.496 31.744 40.448-82.944 65.536h128.512c14.336 0 25.6 11.264 25.6 25.6v43.52z m37.376-210.944l-101.888 71.68-31.744-40.448 91.136-84.992c9.216-7.68 27.648 1.024 35.328 10.24l5.12 6.656c7.168 8.704 11.264 29.184 2.048 36.864z" fill="#75D9D3" p-id="13001"></path></svg>