<svg t="1584601596011" class="icon" viewBox="0 0 1024 1024" version="1.1" xmlns="http://www.w3.org/2000/svg" p-id="27932" width="200" height="200"><path d="M511.68 512m-416 0a416 416 0 1 0 832 0 416 416 0 1 0-832 0Z" fill="#1890FF" p-id="27933"></path><path d="M492.66 606.89v-12s-120.86 94-10.91 183.66h26.05c-8.8-5.65-117.1-78.32-15.14-171.66z" fill="#FFFFFF" p-id="27934"></path><path d="M492.66 580l-12.72-4.49s-142.57 89.58-77.25 203.11h22.37C420 772 348.9 673.87 492.66 580z" fill="#FFFFFF" p-id="27935"></path><path d="M467.22 574.72l-9.72-6S315.67 628.6 327.87 776.2a30.57 30.57 0 0 0 11.85 2.38h5.5c-1.53-7.58-24.53-133.49 122-203.86z" fill="#FFFFFF" p-id="27936"></path><path d="M684.28 245.42H339.72A30.58 30.58 0 0 0 309.14 276v400c28.49-47.48 81.26-99.69 179-128.91v-55.4l32.91 41.89 48.63-18-23.94 47.12 29.17 40.4-46.38-11.92S388.43 710.45 574 778.58h110.28A30.58 30.58 0 0 0 714.86 748V276a30.58 30.58 0 0 0-30.58-30.58zM431.36 436.78h-70.18a15.3 15.3 0 0 1 0-30.6h70.18a15.3 15.3 0 1 1 0 30.6z m65.57-58.46H361.18a15.3 15.3 0 0 1 0-30.6h135.75a15.3 15.3 0 0 1 0 30.6z m71-58.47H361.18a15.3 15.3 0 1 1 0-30.6H568a15.3 15.3 0 0 1 0 30.6z" fill="#FFFFFF" p-id="27937"></path></svg>