<svg t="1584601515430" class="icon" viewBox="0 0 1024 1024" version="1.1" xmlns="http://www.w3.org/2000/svg" p-id="22041" width="200" height="200"><path d="M512 512m-469.333333 0a469.333333 469.333333 0 1 0 938.666666 0 469.333333 469.333333 0 1 0-938.666666 0Z" fill="#00848A" p-id="22042"></path><path d="M529.066667 298.666667a25.6 25.6 0 0 1 25.6 25.6V341.333333h187.733333a25.6 25.6 0 0 1 25.6 25.6v375.466667a25.6 25.6 0 0 1-25.6 25.6H281.6a25.6 25.6 0 0 1-25.6-25.6V324.266667a25.6 25.6 0 0 1 25.6-25.6h247.466667z" fill="#B3DBDA" p-id="22043"></path><path d="M321.578667 384H782.08a25.6 25.6 0 0 1 25.429333 28.416l-36.992 332.8a25.6 25.6 0 0 1-25.429333 22.784H284.586667a25.6 25.6 0 0 1-25.429334-28.416l36.992-332.8A25.6 25.6 0 0 1 321.578667 384z" fill="#FFFFFF" p-id="22044"></path><path d="M341.333333 597.333333m21.333334 0l170.666666 0q21.333333 0 21.333334 21.333334l0 0q0 21.333333-21.333334 21.333333l-170.666666 0q-21.333333 0-21.333334-21.333333l0 0q0-21.333333 21.333334-21.333334Z" fill="#99CED0" p-id="22045"></path><path d="M362.666667 512m21.333333 0l85.333333 0q21.333333 0 21.333334 21.333333l0 0q0 21.333333-21.333334 21.333334l-85.333333 0q-21.333333 0-21.333333-21.333334l0 0q0-21.333333 21.333333-21.333333Z" fill="#99CED0" p-id="22046"></path></svg>